#!OML:ASF G:\JayActor3\Patient Classification 1\Patient 1\Session 5\male.ASF
:FULLY-SPECIFIED
:DEGREES
714
root -14.2556 17.5028 -6.13281 903.307 -84.5116 -905.902
lowerback 1.20322 0.494606 1.58792
upperback 0.726739 0.661322 -1.9191
thorax 0.111049 0.334517 -2.86626
lowerneck -6.9032 0.228948 1.59559
upperneck 9.938 -0.0795006 1.34336
head 4.53195 0.066013 0.162442
rclavicle -8.01351e-016 -1.59028e-015
rhumerus -32.0415 -7.60729 -87.0012
rradius 23.593
rwrist 6.18091
rhand -20.745 -10.9677
rfingers 7.12502
rthumb 5.62052 -40.8732
lclavicle -8.01351e-016 -1.59028e-015
lhumerus -34.3183 11.5329 78.357
lradius 23.3946
lwrist 15.5593
lhand -17.906 11.9846
lfingers 7.12502
lthumb 8.36106 41.7992
rfemur -1.32528 5.00634 21.0599
rtibia 54.2931
rfoot 8.00453 -6.74959
rtoes -1.26946
lfemur -10.2631 13.7921 -24.6317
ltibia 29.2662
lfoot 1.02376 -4.3087
ltoes -28.9109
715
root -14.3853 17.5203 -6.13247 903.176 -84.642 -905.776
lowerback 1.11881 0.406889 1.58565
upperback 0.838608 0.544017 -1.89708
thorax 0.265524 0.278597 -2.83996
lowerneck -6.9444 0.284497 1.61944
upperneck 10.0039 -0.00690728 1.3135
head 4.56457 0.101709 0.152753
rclavicle -4.56584e-015 7.95139e-016
rhumerus -31.9178 -7.50059 -87.0376
rradius 23.7424
rwrist 5.91364
rhand -20.689 -10.9301
rfingers 7.12502
rthumb 5.67457 -40.8341
lclavicle -4.56584e-015 7.95139e-016
lhumerus -33.7495 11.1346 78.6738
lradius 23.6368
lwrist 15.7315
lhand -18.0026 11.9195
lfingers 7.12502
lthumb 8.26781 41.7377
rfemur -2.63559 5.06755 21.027
rtibia 54.8995
rfoot 5.80496 -6.20775
rtoes -2.7816
lfemur -9.7564 13.7696 -24.5176
ltibia 29.2149
lfoot 1.08585 -4.45087
ltoes -29.3535
716
root -14.5128 17.5373 -6.1332 903.269 -84.7886 -905.853
lowerback 1.08243 0.315125 1.53939
upperback 0.905626 0.421136 -1.87052
thorax 0.346488 0.218329 -2.78513
lowerneck -6.98436 0.328062 1.64245
upperneck 10.1092 0.0484173 1.28228
head 4.61141 0.128834 0.141825
rclavicle -1.77555e-014 1.59028e-015
rhumerus -31.865 -7.37081 -87.0628
rradius 23.9149
rwrist 5.61256
rhand -20.6396 -10.909
rfingers 7.12502
rthumb 5.72232 -40.8117
lclavicle -1.77555e-014 1.59028e-015
lhumerus -33.2581 10.7048 78.9834
lradius 23.9382
lwrist 15.9656
lhand -18.0906 11.8389
lfingers 7.12502
lthumb 8.18291 41.6605
rfemur -3.97449 5.10934 20.9784
rtibia 55.3865
rfoot 3.76268 -5.85343
rtoes -4.25029
lfemur -9.28881 13.7453 -24.4301
ltibia 29.164
lfoot 1.16852 -4.57393
ltoes -29.6943
717
root -14.6383 17.5534 -6.13507 903.752 -84.9431 -906.306
lowerback 1.1003 0.221566 1.43875
upperback 0.93524 0.295628 -1.84588
thorax 0.358564 0.155237 -2.70219
lowerneck -7.04975 0.360964 1.65932
upperneck 10.2605 0.0876585 1.25517
head 4.68051 0.148268 0.132601
rclavicle -3.94774e-015 -1.51076e-014
rhumerus -31.8664 -7.23117 -87.0782
rradius 24.0992
rwrist 5.30465
rhand -20.6063 -10.8887
rfingers 7.12502
rthumb 5.75449 -40.7906
lclavicle -3.94774e-015 -1.51076e-014
lhumerus -32.8351 10.2406 79.2858
lradius 24.3036
lwrist 16.2691
lhand -18.1638 11.7595
lfingers 7.12502
lthumb 8.11229 41.5838
rfemur -5.33189 5.13367 20.9001
rtibia 55.7617
rfoot 1.84156 -5.69991
rtoes -5.74783
lfemur -8.8479 13.7195 -24.382
ltibia 29.1083
lfoot 1.27407 -4.66363
ltoes -29.8896
718
root -14.7625 17.5682 -6.13819 904.446 -85.0933 -906.966
lowerback 1.17337 0.133125 1.30414
upperback 0.927602 0.176769 -1.82094
thorax 0.302315 0.094244 -2.60002
lowerneck -7.1021 0.382373 1.67854
upperneck 10.4406 0.110697 1.22435
head 4.75769 0.159502 0.120729
rclavicle -5.14821e-016 -9.54166e-015
rhumerus -31.9318 -7.09661 -87.078
rradius 24.2891
rwrist 5.0127
rhand -20.5628 -10.8753
rfingers 7.12502
rthumb 5.79648 -40.776
lclavicle -5.14821e-016 -9.54166e-015
lhumerus -32.4935 9.73799 79.578
lradius 24.7366
lwrist 16.6376
lhand -18.2205 11.7026
lfingers 7.12502
lthumb 8.05757 41.529
rfemur -6.69355 5.16427 20.8153
rtibia 56.0297
rfoot 0.0133516 -5.80311
rtoes -7.0348
lfemur -8.4167 13.7017 -24.3503
ltibia 29.0439
lfoot 1.39741 -4.72571
ltoes -29.9884
719
root -14.8858 17.581 -6.14237 905.318 -85.2356 -907.808
lowerback 1.2847 0.0531676 1.14813
upperback 0.905096 0.068775 -1.79924
thorax 0.210608 0.0382067 -2.48904
lowerneck -7.15253 0.394872 1.69401
upperneck 10.6282 0.121178 1.19956
head 4.83749 0.164648 0.110786
rclavicle 2.2208e-016 -1.19271e-014
rhumerus -32.0253 -6.97789 -87.0673
rradius 24.4773
rwrist 4.74722
rhand -20.512 -10.8762
rfingers 7.12502
rthumb 5.84549 -40.7755
lclavicle 2.2208e-016 -1.19271e-014
lhumerus -32.1964 9.21103 79.8594
lradius 25.2299
lwrist 17.0481
lhand -18.2566 11.6722
lfingers 7.12502
lthumb 8.02268 41.4999
rfemur -8.04135 5.20268 20.7283
rtibia 56.1925
rfoot -1.74941 -6.17857
rtoes -8.0183
lfemur -7.9786 13.6928 -24.3276
ltibia 28.9682
lfoot 1.52677 -4.76603
ltoes -29.9965
